<?xml version="1.0" encoding="UTF-8"?>
<svg id="Layer_2" data-name="Layer 2" xmlns="http://www.w3.org/2000/svg" viewBox="0 0 500 500">
  <defs>
    <style>
      .cls-1 {
        font-size: 36px;
      }

      .cls-1, .cls-2 {
        fill: #fe020b;
        font-family: PineconeMVBRough1-Wide, 'Pinecone MVB Rough1';
      }

      .cls-2 {
        font-size: 37px;
      }

      .cls-3 {
        stroke: #000;
        stroke-linecap: round;
        stroke-linejoin: round;
        stroke-width: 4px;
      }

      .cls-3, .cls-4 {
        fill: #0e287a;
      }
    </style>
  </defs>
  <text class="cls-1" transform="translate(196.28 255.85)"><tspan x="0" y="0">JBS</tspan></text>
  <text class="cls-2" transform="translate(137.29 224.04) rotate(-104.87)"><tspan x="0" y="0"> </tspan></text>
  <text class="cls-2" transform="translate(134.68 214.81) rotate(-99.54)"><tspan x="0" y="0"> </tspan></text>
  <text class="cls-2" transform="translate(132.93 205.38) rotate(-94.25)"><tspan x="0" y="0"> </tspan></text>
  <text class="cls-2" transform="translate(131.67 197.85) rotate(-87.01)"><tspan x="0" y="0">J</tspan></text>
  <text class="cls-2" transform="translate(132.81 177.77) rotate(-79.04)"><tspan x="0" y="0">.</tspan></text>
  <text class="cls-2" transform="translate(133.39 168.41) rotate(-68.66)"><tspan x="0" y="0">B</tspan></text>
  <text class="cls-2" transform="translate(144.09 142.41) rotate(-58.31)"><tspan x="0" y="0">.</tspan></text>
  <text class="cls-2" transform="translate(149.06 134.07) rotate(-52.98)"><tspan x="0" y="0"> </tspan></text>
  <text class="cls-2" transform="translate(153.96 126.17) rotate(-44.04)"><tspan x="0" y="0">S</tspan></text>
  <text class="cls-2" transform="translate(170.83 110.07) rotate(-34.37)"><tspan x="0" y="0">I</tspan></text>
  <text class="cls-2" transform="translate(179.83 102.35) rotate(-22.93)"><tspan x="0" y="0">N</tspan></text>
  <text class="cls-2" transform="translate(206.79 90.55) rotate(-7.55)"><tspan x="0" y="0">G</tspan></text>
  <text class="cls-2" transform="translate(232.75 86.33) rotate(7.61)"><tspan x="0" y="0">H</tspan></text>
  <text class="cls-2" transform="translate(262.15 90.85) rotate(18.39)"><tspan x="0" y="0"> </tspan></text>
  <text class="cls-2" transform="translate(271.23 92.55) rotate(28.87)"><tspan x="0" y="0">&amp;</tspan></text>
  <text class="cls-2" transform="translate(296.12 106.89) rotate(39.3)"><tspan x="0" y="0"> </tspan></text>
  <text class="cls-2" transform="translate(303.83 112.11) rotate(48.25)"><tspan x="0" y="0">S</tspan></text>
  <text class="cls-2" transform="translate(319.73 128.75) rotate(62.06)"><tspan x="0" y="0">O</tspan></text>
  <text class="cls-2" transform="translate(333.18 152.54) rotate(77.73)"><tspan x="0" y="0">N</tspan></text>
  <text class="cls-2" transform="translate(339.55 181.33) rotate(92.05)"><tspan x="0" y="0">S</tspan></text>
  <text/>
  <path class="cls-3" d="M320.35,224.6c-17.22,23.92-46.77,48.15-86.48,46.71-40.91-1.48-74.15-31.09-83.23-53.58l-57.98-8.56,17.82,43.56,17.82,43.56,112.53,2.28h111.21l15.18-36.6,13.86-38.94-60.72,1.56Z"/>
  <g>
    <path class="cls-4" d="M176.16,221.48c-.17-.01-.41-.19-.49-.45l-7.9-23.79c-.16-.48-.08-1,.22-1.41.3-.41.76-.65,1.27-.65l139.93.9c.3,0,.47.18.54.29.07.1.17.3.08.56l-11.16,23.34c-.47.99-1.48,1.62-2.57,1.62,0,0-119.93-.43-119.93-.43Z"/>
    <path d="M169.86,197.19l137.2.88-10.2,21.35c-.14.29-.44.48-.77.48l-118.82-.42-7.4-22.29M169.26,193.18c-2.43,0-4.15,2.38-3.38,4.69l7.9,23.79c.34,1.04,1.29,1.76,2.38,1.82l119.92.43s.01,0,.02,0c1.87,0,3.57-1.07,4.38-2.76l11.2-23.43c.68-1.74-.59-3.62-2.46-3.63l-139.92-.9s-.02,0-.02,0h0Z"/>
  </g>
  <rect class="cls-4" x="176.11" y="160.08" width="18" height="27"/>
  <rect class="cls-4" x="176.11" y="140.08" width="18" height="16"/>
  <rect class="cls-4" x="203.11" y="161.08" width="18" height="27"/>
  <rect class="cls-4" x="202.11" y="140.08" width="18" height="16"/>
  <rect class="cls-4" x="272.11" y="159.08" width="13" height="28"/>
  <rect class="cls-4" x="253.11" y="159.08" width="13" height="28"/>
  <path class="cls-4" d="M187.22,132.25c-3.15.5-11.13-3.22-11.62-6.42-.4-2.6,2.7-3.72,4.86-2.49,1.31.74,7.72,7.98,6.76,8.91Z"/>
  <path class="cls-4" d="M183.82,114.55c5.01-1.43,8.48,10.21,5.96,10.68-3.12-.84-11.36-7.65-5.96-10.68Z"/>
  <path class="cls-4" d="M217.06,125.82c3.01,2.86-2.53,6.93-5.29,7.34-1.54.23-3.3-.09-4.88.03,1.56-3.38,5.7-10.27,10.17-7.36Z"/>
  <path class="cls-4" d="M197.4,109.44c1.62,1.71.52,9.94-1.98,11.57-3.53-2.64-4.99-16.37,1.98-11.57Z"/>
  <path class="cls-4" d="M210.05,116.45c2.64,2.65-4.44,10.07-6.44,9.04-3.22-2.57,1.8-12.68,6.44-9.04Z"/>
  <path class="cls-4" d="M261.36,154.88c-2.47,1.09-9.92-3.82-7.27-6.08,3.1-2.66,7.92,5.46,7.27,6.08Z"/>
  <path class="cls-4" d="M273.4,143.73c5.4-1.58,1.92,7.29-1.92,6.91-2.31-1.33.23-6.42,1.92-6.91Z"/>
  <path class="cls-4" d="M274,155.34c-.21-.19,2.39-4.59,2.81-4.91,7.2-3.57,4.57,6.36-2.81,4.91Z"/>
  <path class="cls-4" d="M267.06,139.34c2.99-.57,2.77,7.66.4,7.91-2.92.32-2.72-7.47-.4-7.91Z"/>
  <path class="cls-4" d="M263.23,150.2c-2.39.55-6.75-5.37-4.71-6.81,2.95-2.08,5.52,4.51,4.71,6.81Z"/>
  <line class="cls-3" x1="165.11" y1="188.08" x2="311.11" y2="188.61"/>
</svg>